<mxfile host="app.diagrams.net" modified="2023-10-04T03:05:45.450Z" agent="Mozilla/5.0 (Windows NT 10.0; Win64; x64) AppleWebKit/537.36 (KHTML, like Gecko) Chrome/117.0.0.0 Safari/537.36 Edg/117.0.2045.31" etag="Tzw5gpJwRBCYMoOPgMVE" version="22.0.2" type="device">
  <diagram name="Page-1" id="afRexp37Kp8u9ZSqR4Cr">
    <mxGraphModel dx="872" dy="481" grid="1" gridSize="10" guides="1" tooltips="1" connect="1" arrows="1" fold="1" page="1" pageScale="1" pageWidth="850" pageHeight="1100" math="0" shadow="0">
      <root>
        <mxCell id="0" />
        <mxCell id="1" parent="0" />
        <mxCell id="SpHh5MpZSqqpQ7ZfkUww-3" value="" style="edgeStyle=orthogonalEdgeStyle;rounded=0;orthogonalLoop=1;jettySize=auto;html=1;" edge="1" parent="1" source="SpHh5MpZSqqpQ7ZfkUww-1">
          <mxGeometry relative="1" as="geometry">
            <mxPoint x="435" y="180" as="targetPoint" />
          </mxGeometry>
        </mxCell>
        <mxCell id="SpHh5MpZSqqpQ7ZfkUww-1" value="STAR" style="ellipse;whiteSpace=wrap;html=1;" vertex="1" parent="1">
          <mxGeometry x="380" y="20" width="110" height="80" as="geometry" />
        </mxCell>
        <mxCell id="SpHh5MpZSqqpQ7ZfkUww-5" style="edgeStyle=orthogonalEdgeStyle;rounded=0;orthogonalLoop=1;jettySize=auto;html=1;exitX=0.5;exitY=1;exitDx=0;exitDy=0;" edge="1" parent="1">
          <mxGeometry relative="1" as="geometry">
            <mxPoint x="440" y="320" as="targetPoint" />
            <mxPoint x="440" y="250" as="sourcePoint" />
          </mxGeometry>
        </mxCell>
        <mxCell id="SpHh5MpZSqqpQ7ZfkUww-8" style="edgeStyle=orthogonalEdgeStyle;rounded=0;orthogonalLoop=1;jettySize=auto;html=1;exitX=0.5;exitY=1;exitDx=0;exitDy=0;" edge="1" parent="1">
          <mxGeometry relative="1" as="geometry">
            <mxPoint x="440" y="440" as="targetPoint" />
            <mxPoint x="440" y="390" as="sourcePoint" />
          </mxGeometry>
        </mxCell>
        <mxCell id="SpHh5MpZSqqpQ7ZfkUww-12" value="no" style="edgeStyle=orthogonalEdgeStyle;rounded=0;orthogonalLoop=1;jettySize=auto;html=1;" edge="1" parent="1" source="SpHh5MpZSqqpQ7ZfkUww-9">
          <mxGeometry x="-0.5682" relative="1" as="geometry">
            <mxPoint x="690" y="690" as="targetPoint" />
            <mxPoint as="offset" />
          </mxGeometry>
        </mxCell>
        <mxCell id="SpHh5MpZSqqpQ7ZfkUww-22" value="yes" style="edgeStyle=orthogonalEdgeStyle;rounded=0;orthogonalLoop=1;jettySize=auto;html=1;exitX=0.5;exitY=1;exitDx=0;exitDy=0;" edge="1" parent="1">
          <mxGeometry relative="1" as="geometry">
            <mxPoint x="449.5" y="960" as="targetPoint" />
            <mxPoint x="449.5" y="540" as="sourcePoint" />
          </mxGeometry>
        </mxCell>
        <mxCell id="SpHh5MpZSqqpQ7ZfkUww-9" value="if(tebakan==input)" style="rhombus;whiteSpace=wrap;html=1;" vertex="1" parent="1">
          <mxGeometry x="380" y="450" width="140" height="80" as="geometry" />
        </mxCell>
        <mxCell id="SpHh5MpZSqqpQ7ZfkUww-10" value="input angka" style="shape=parallelogram;perimeter=parallelogramPerimeter;whiteSpace=wrap;html=1;fixedSize=1;" vertex="1" parent="1">
          <mxGeometry x="380" y="180" width="120" height="60" as="geometry" />
        </mxCell>
        <mxCell id="SpHh5MpZSqqpQ7ZfkUww-11" value="tebakan" style="rounded=0;whiteSpace=wrap;html=1;" vertex="1" parent="1">
          <mxGeometry x="380" y="320" width="120" height="60" as="geometry" />
        </mxCell>
        <mxCell id="SpHh5MpZSqqpQ7ZfkUww-14" value="yes" style="edgeStyle=orthogonalEdgeStyle;rounded=0;orthogonalLoop=1;jettySize=auto;html=1;exitX=1;exitY=0.5;exitDx=0;exitDy=0;" edge="1" parent="1" source="SpHh5MpZSqqpQ7ZfkUww-13">
          <mxGeometry relative="1" as="geometry">
            <mxPoint x="830" y="740" as="targetPoint" />
          </mxGeometry>
        </mxCell>
        <mxCell id="SpHh5MpZSqqpQ7ZfkUww-16" value="no" style="edgeStyle=orthogonalEdgeStyle;rounded=0;orthogonalLoop=1;jettySize=auto;html=1;exitX=0.5;exitY=1;exitDx=0;exitDy=0;" edge="1" parent="1" source="SpHh5MpZSqqpQ7ZfkUww-13">
          <mxGeometry relative="1" as="geometry">
            <mxPoint x="690" y="830" as="targetPoint" />
          </mxGeometry>
        </mxCell>
        <mxCell id="SpHh5MpZSqqpQ7ZfkUww-13" value="jika tebakan &amp;gt; input" style="rhombus;whiteSpace=wrap;html=1;" vertex="1" parent="1">
          <mxGeometry x="630" y="700" width="120" height="80" as="geometry" />
        </mxCell>
        <mxCell id="SpHh5MpZSqqpQ7ZfkUww-29" style="edgeStyle=orthogonalEdgeStyle;rounded=0;orthogonalLoop=1;jettySize=auto;html=1;entryX=1;entryY=0.25;entryDx=0;entryDy=0;" edge="1" parent="1" source="SpHh5MpZSqqpQ7ZfkUww-15" target="SpHh5MpZSqqpQ7ZfkUww-11">
          <mxGeometry relative="1" as="geometry">
            <Array as="points">
              <mxPoint x="880" y="335" />
            </Array>
          </mxGeometry>
        </mxCell>
        <mxCell id="SpHh5MpZSqqpQ7ZfkUww-15" value="tebakan terlalu besar" style="shape=parallelogram;perimeter=parallelogramPerimeter;whiteSpace=wrap;html=1;fixedSize=1;" vertex="1" parent="1">
          <mxGeometry x="830" y="700" width="140" height="60" as="geometry" />
        </mxCell>
        <mxCell id="SpHh5MpZSqqpQ7ZfkUww-18" value="yes" style="edgeStyle=orthogonalEdgeStyle;rounded=0;orthogonalLoop=1;jettySize=auto;html=1;exitX=1;exitY=0.5;exitDx=0;exitDy=0;" edge="1" parent="1" source="SpHh5MpZSqqpQ7ZfkUww-17" target="SpHh5MpZSqqpQ7ZfkUww-19">
          <mxGeometry relative="1" as="geometry">
            <mxPoint x="840" y="880" as="targetPoint" />
          </mxGeometry>
        </mxCell>
        <mxCell id="SpHh5MpZSqqpQ7ZfkUww-28" value="no" style="edgeStyle=orthogonalEdgeStyle;rounded=0;orthogonalLoop=1;jettySize=auto;html=1;entryX=0.75;entryY=0;entryDx=0;entryDy=0;" edge="1" parent="1" source="SpHh5MpZSqqpQ7ZfkUww-17" target="SpHh5MpZSqqpQ7ZfkUww-23">
          <mxGeometry relative="1" as="geometry">
            <Array as="points">
              <mxPoint x="480" y="880" />
            </Array>
          </mxGeometry>
        </mxCell>
        <mxCell id="SpHh5MpZSqqpQ7ZfkUww-17" value="jika tebakan terlalu kecil" style="rhombus;whiteSpace=wrap;html=1;" vertex="1" parent="1">
          <mxGeometry x="640" y="840" width="110" height="80" as="geometry" />
        </mxCell>
        <mxCell id="SpHh5MpZSqqpQ7ZfkUww-30" style="edgeStyle=orthogonalEdgeStyle;rounded=0;orthogonalLoop=1;jettySize=auto;html=1;entryX=1;entryY=0.5;entryDx=0;entryDy=0;" edge="1" parent="1" source="SpHh5MpZSqqpQ7ZfkUww-19" target="SpHh5MpZSqqpQ7ZfkUww-11">
          <mxGeometry relative="1" as="geometry">
            <Array as="points">
              <mxPoint x="980" y="880" />
              <mxPoint x="980" y="350" />
            </Array>
          </mxGeometry>
        </mxCell>
        <mxCell id="SpHh5MpZSqqpQ7ZfkUww-19" value="terlalu kecil" style="shape=parallelogram;perimeter=parallelogramPerimeter;whiteSpace=wrap;html=1;fixedSize=1;size=10;" vertex="1" parent="1">
          <mxGeometry x="840" y="850" width="120" height="60" as="geometry" />
        </mxCell>
        <mxCell id="SpHh5MpZSqqpQ7ZfkUww-24" style="edgeStyle=orthogonalEdgeStyle;rounded=0;orthogonalLoop=1;jettySize=auto;html=1;exitX=1;exitY=0.5;exitDx=0;exitDy=0;" edge="1" parent="1" source="SpHh5MpZSqqpQ7ZfkUww-23">
          <mxGeometry relative="1" as="geometry">
            <mxPoint x="620" y="990" as="targetPoint" />
          </mxGeometry>
        </mxCell>
        <mxCell id="SpHh5MpZSqqpQ7ZfkUww-23" value="tebakan benar" style="shape=parallelogram;perimeter=parallelogramPerimeter;whiteSpace=wrap;html=1;fixedSize=1;" vertex="1" parent="1">
          <mxGeometry x="390" y="960" width="120" height="60" as="geometry" />
        </mxCell>
        <mxCell id="SpHh5MpZSqqpQ7ZfkUww-25" value="stop" style="ellipse;whiteSpace=wrap;html=1;" vertex="1" parent="1">
          <mxGeometry x="650" y="970" width="110" height="50" as="geometry" />
        </mxCell>
      </root>
    </mxGraphModel>
  </diagram>
</mxfile>
